<?xml version="1.0" encoding="utf-8"?>
<!-- Generator: Adobe Illustrator 21.1.0, SVG Export Plug-In . SVG Version: 6.00 Build 0)  -->
<svg version="1.1" id="svg2" xmlns="http://www.w3.org/2000/svg" xmlns:xlink="http://www.w3.org/1999/xlink" x="0px" y="0px"
	 viewBox="0 0 950.8 89.6" style="enable-background:new 0 0 950.8 89.6;" xml:space="preserve">
<style type="text/css">
	.st0{fill:#000;}
</style>
<title>powered_by_betfair</title>
<g id="g10">
	<g id="g12">
		<path id="path14" class="st0" d="M576.3,50.8c0-14.5,9.3-14.7,21.8-14.7h1.4c12.2,0,18.9,2,18.9,16.1v9.8c0,11.7-3,16.7-19.3,16.7
			H596c-15.4,0-19.6-4.3-19.6-16V50.8z M576.3,81.9h0.2c3.8,5.1,10.9,7.7,19.6,7.7h4.5c18.1,0,31.4-4.6,31.4-25.5V51.3
			c0-19.3-8.5-26.2-30.8-26.2h-6.9c-9.7,0-15.2,3.3-17.7,6.9h-0.3V1h-13.6v86.6h13.6V81.9"/>
		<path id="path16" class="st0" d="M797.4,26.6h-18.3V21c0-5.3,3.5-9.6,10.9-9.6h13.6V1h-18.1c-10.9,0-20.1,5.7-20.1,20.1v5.5h-7.3
			v11h7.3v52h13.7v-52h18.3V26.6"/>
		<path id="path18" class="st0" d="M718.6,69.5c0,14.4,9.2,20.1,20.1,20.1h16.9v-11H742c-7.4,0-9.8-3.7-9.8-9.1v-32h18.3v-11h-18.3
			V1h-13.6v25.6h-7.3v11h7.3L718.6,69.5"/>
		<path id="path20" class="st0" d="M875.7,13.9h13.6V0h-13.6V13.9"/>
		<path id="path22" class="st0" d="M875.7,89.6h13.6V25.1h-13.6L875.7,89.6"/>
		<path id="path24" class="st0" d="M652.5,49.7c0-12.4,5.8-13.6,19.8-13.6h2.8C691,36,693,40,693,48.2v3.5h-40.5L652.5,49.7
			L652.5,49.7z M667.4,89.6h12.3c16.5,0,24.1-5.2,26-14.4l-12.1-3.7c-2,5.7-6.9,7.1-17.6,7.1h-3.2c-17.5,0-20.3-2.2-20.3-16h54.2
			V50.7c0-21.6-11.2-25.6-29.1-25.6h-6.7c-14.2,0-31.4,2.5-31.4,24.5v15.2C639.5,86.1,654.4,89.6,667.4,89.6"/>
		<path id="path26" class="st0" d="M850,70.3c0,6.1-4.2,8.3-20.3,8.3H826c-13.7,0-15.5-2.7-15.5-7.9v-3.4c0-6.1,3.4-8.3,14.8-8.3
			h6.1c10.4,0,18.6,2,18.6,8.8L850,70.3L850,70.3z M833,25.1h-5.1c-18.5,0-26.5,5.7-27,14.2l13,4.3c0.6-5.8,7.3-7.5,17.4-7.5
			c15.1,0,18.7,0.9,18.7,11.8v5.9h-0.3c-3.4-4.6-8.1-5.7-19.9-5.7h-5.3c-17.4,0-27.6,4.3-27.6,18.1v3.9c0,11.4,4.3,19.5,22.5,19.5
			h13.2c13.2,0,14.5-2.2,17.1-5.9h0.2v5.9h13.6V48.1C863.6,30,851.6,25.1,833,25.1"/>
		<path id="path28" class="st0" d="M931,25.1c-6.1,0-12.2,2.3-16.1,8.6h-0.5v-8.6h-12.9v64.5h13.7V50.8c0-7.8,4.5-14.7,15.1-14.7
			c7.6,0,11.2,2.1,12,4.2l8.6-5.8C948.7,28.6,943,25.1,931,25.1"/>
		<path id="path30" class="st0" d="M537.6,1.2h-35.3V19h-18.9l36.5,42.7l36.5-42.7h-18.9V1.2"/>
		<path id="path32" class="st0" d="M436.8,71.5h18.9v17.7H491V71.5h18.9l-36.5-42.7L436.8,71.5"/>
		<path class="st0" d="M11,49.2V70H0V10.9h19.3c3.5-0.1,6.9,0.4,10.3,1.4c2.6,0.8,5.1,2.1,7.2,3.9c1.9,1.6,3.3,3.7,4.2,6
			c1.8,5,1.8,10.5-0.1,15.5c-0.9,2.4-2.4,4.5-4.3,6.2c-2.1,1.8-4.5,3.2-7.2,4c-3.3,1-6.7,1.5-10.1,1.4L11,49.2z M11,40.6h8.3
			c1.8,0,3.6-0.2,5.3-0.8c1.4-0.4,2.7-1.2,3.7-2.2c1-1,1.8-2.1,2.2-3.4c0.5-1.5,0.8-3,0.7-4.5c0-1.4-0.2-2.9-0.7-4.2
			c-0.5-1.2-1.2-2.4-2.2-3.3c-1.1-1-2.3-1.7-3.7-2.1c-1.7-0.5-3.5-0.8-5.3-0.7H11V40.6z"/>
		<path class="st0" d="M66.9,27.4c2.9,0,5.8,0.5,8.5,1.5c2.5,0.9,4.7,2.4,6.5,4.3c1.9,1.9,3.3,4.3,4.2,6.8c1,2.9,1.5,5.9,1.5,9
			c0,3.1-0.5,6.1-1.5,9c-0.9,2.5-2.3,4.9-4.2,6.8c-1.8,1.9-4.1,3.4-6.5,4.3c-5.5,2-11.6,2-17.1,0c-2.5-1-4.7-2.4-6.6-4.3
			c-1.9-2-3.3-4.3-4.2-6.8c-1-2.9-1.5-5.9-1.5-9c0-3.1,0.5-6.1,1.5-9c0.9-2.5,2.3-4.8,4.2-6.8c1.9-1.9,4.1-3.3,6.6-4.3
			C61.1,27.9,63.9,27.3,66.9,27.4z M66.9,62.8c3.5,0,6.1-1.2,7.8-3.5s2.5-5.8,2.5-10.3c0-4.5-0.8-8-2.5-10.3
			c-1.7-2.4-4.3-3.6-7.8-3.6c-3.5,0-6.2,1.2-7.8,3.6c-1.7,2.4-2.5,5.8-2.5,10.3c0,4.5,0.8,7.9,2.5,10.3
			C60.7,61.6,63.3,62.8,66.9,62.8z"/>
		<path class="st0" d="M90.3,28h8c0.7,0,1.3,0.2,1.9,0.5c0.5,0.3,0.8,0.8,1,1.3l6,22.4c0.3,1.2,0.6,2.4,0.8,3.6
			c0.2,1.2,0.4,2.3,0.6,3.5c0.3-1.2,0.6-2.3,1-3.5c0.4-1.2,0.7-2.4,1.1-3.6l7-22.5c0.2-0.6,0.5-1,1-1.3c0.5-0.3,1-0.5,1.6-0.5h4.5
			c0.7,0,1.3,0.2,1.8,0.5c0.5,0.3,0.8,0.8,1,1.3l6.9,22.9c0.4,1.2,0.7,2.3,1,3.4c0.3,1.1,0.6,2.2,0.8,3.3c0.2-1.2,0.4-2.3,0.6-3.5
			c0.2-1.2,0.5-2.4,0.9-3.6l6.2-22.4c0.1-0.6,0.5-1,1-1.3c0.5-0.4,1.2-0.5,1.8-0.5h7.6l-13.3,42h-8.1c-0.9,0-1.5-0.6-1.9-1.8
			L123.6,44c-0.2-0.8-0.5-1.6-0.7-2.4s-0.4-1.6-0.5-2.4c-0.2,0.8-0.3,1.6-0.5,2.4c-0.2,0.8-0.4,1.6-0.6,2.4l-7.6,24.2
			c-0.2,1.1-1.1,1.8-2.2,1.8h-7.7L90.3,28z"/>
		<path class="st0" d="M177.5,27.4c2.5,0,5,0.4,7.3,1.3c2.2,0.8,4.1,2.1,5.8,3.7c1.7,1.7,2.9,3.8,3.8,6c0.9,2.6,1.4,5.3,1.4,8.1
			c0,0.6,0,1.3-0.1,1.9c0,0.4-0.2,0.8-0.4,1.2c-0.2,0.3-0.4,0.5-0.7,0.6c-0.4,0.1-0.8,0.2-1.1,0.2h-26c0.3,4.3,1.5,7.5,3.5,9.5
			c2.1,2.1,5,3.1,8,3c1.4,0,2.9-0.2,4.2-0.6c1.1-0.3,2.1-0.8,3.1-1.3c0.9-0.5,1.7-0.9,2.3-1.3c0.6-0.4,1.3-0.6,1.9-0.6
			c0.4,0,0.7,0.1,1.1,0.2c0.3,0.2,0.6,0.4,0.8,0.7l2.9,3.7c-1.1,1.3-2.3,2.4-3.8,3.3c-1.4,0.9-2.8,1.6-4.4,2.1
			c-1.5,0.5-3,0.9-4.6,1.1c-1.5,0.2-3,0.3-4.6,0.3c-2.8,0-5.5-0.5-8.1-1.4c-2.5-0.9-4.7-2.4-6.5-4.3c-1.9-2-3.4-4.4-4.4-7
			c-1.1-3.1-1.6-6.4-1.5-9.8c0-2.8,0.5-5.5,1.4-8.1c0.9-2.4,2.2-4.7,4-6.6c1.8-1.9,3.9-3.4,6.3-4.4
			C171.7,27.9,174.6,27.3,177.5,27.4z M177.7,34.6c-2.5-0.1-5,0.8-6.9,2.5c-1.8,2-2.9,4.4-3.2,7.1h19c0-1.3-0.2-2.5-0.5-3.7
			c-0.4-1.1-0.9-2.1-1.7-3c-0.8-0.9-1.7-1.6-2.8-2.1C180.3,34.9,179,34.6,177.7,34.6L177.7,34.6z"/>
		<path class="st0" d="M203.8,70V28h5.9c0.8-0.1,1.5,0.1,2.2,0.6c0.5,0.6,0.8,1.3,0.8,2l0.6,5.1c1.3-2.4,3.1-4.5,5.3-6.2
			c2-1.5,4.3-2.3,6.8-2.2c1.8-0.1,3.6,0.4,5.2,1.4l-1.3,7.6c0,0.4-0.2,0.7-0.5,1c-0.3,0.2-0.7,0.3-1.1,0.3c-0.6,0-1.1-0.1-1.7-0.3
			c-0.9-0.2-1.9-0.3-2.8-0.3c-1.9-0.1-3.9,0.6-5.4,1.7c-1.7,1.4-3,3.1-3.8,5.1V70H203.8z"/>
		<path class="st0" d="M254.6,27.4c2.5,0,5,0.4,7.3,1.3c2.2,0.8,4.1,2.1,5.8,3.7c1.7,1.7,2.9,3.8,3.8,6c0.9,2.6,1.4,5.3,1.4,8.1
			c0,0.6,0,1.3-0.1,1.9c0,0.4-0.2,0.8-0.4,1.2c-0.2,0.3-0.4,0.5-0.7,0.6c-0.4,0.1-0.8,0.2-1.1,0.2h-25.9c0.3,4.3,1.5,7.5,3.5,9.5
			c2.1,2.1,5,3.1,8,3c1.4,0,2.9-0.2,4.2-0.6c1.1-0.3,2.1-0.8,3.1-1.3c0.9-0.5,1.7-0.9,2.3-1.3c0.6-0.4,1.3-0.6,1.9-0.6
			c0.4,0,0.7,0.1,1.1,0.2c0.3,0.2,0.6,0.4,0.8,0.7l2.9,3.7c-1.1,1.3-2.3,2.4-3.8,3.3c-1.4,0.9-2.8,1.6-4.4,2.1
			c-1.5,0.5-3,0.9-4.6,1.1c-1.5,0.2-3,0.3-4.6,0.3c-2.8,0-5.5-0.5-8.1-1.4c-2.5-0.9-4.7-2.4-6.5-4.3c-1.9-2-3.4-4.4-4.4-7
			c-1.1-3.1-1.7-6.4-1.6-9.7c0-2.8,0.5-5.5,1.4-8.1c0.9-2.4,2.2-4.7,4-6.6c1.8-1.9,3.9-3.4,6.3-4.4
			C248.8,27.9,251.7,27.3,254.6,27.4z M254.8,34.6c-2.5-0.1-5,0.8-6.9,2.5c-1.8,2-2.9,4.4-3.2,7.1h19c0-1.3-0.2-2.5-0.5-3.7
			c-0.3-1.1-0.9-2.1-1.6-3c-0.8-0.9-1.7-1.6-2.8-2.1C257.5,34.9,256.1,34.6,254.8,34.6z"/>
		<path class="st0" d="M310.5,70c-1.2,0.1-2.3-0.7-2.6-1.8l-0.8-4c-0.8,0.9-1.8,1.8-2.8,2.6c-1,0.8-2,1.4-3.1,2
			c-1.1,0.6-2.3,1-3.6,1.3c-1.3,0.3-2.7,0.5-4.1,0.5c-4.4,0.1-8.6-2-11.2-5.5c-1.5-2-2.6-4.3-3.2-6.7c-0.8-3-1.2-6.1-1.1-9.2
			c0-2.9,0.4-5.9,1.3-8.7c0.8-2.5,2-4.9,3.6-7c1.5-1.9,3.5-3.5,5.7-4.6c2.3-1.1,4.9-1.7,7.4-1.7c2.1-0.1,4.1,0.3,6,1.1
			c1.6,0.7,3.2,1.8,4.5,3V9.2h10.1V70H310.5z M297,62.6c1.9,0,3.7-0.4,5.3-1.3c1.6-1,3-2.2,4.2-3.7V38.8c-1-1.3-2.3-2.3-3.7-2.9
			c-1.4-0.6-2.9-0.9-4.4-0.9c-1.4,0-2.8,0.3-4.1,0.9c-1.3,0.6-2.3,1.5-3.1,2.6c-0.9,1.3-1.6,2.8-2,4.4c-0.5,2.1-0.7,4.2-0.7,6.3
			c0,2.1,0.2,4.2,0.6,6.2c0.3,1.5,0.9,2.9,1.7,4.2c0.7,1,1.6,1.8,2.7,2.3C294.5,62.4,295.8,62.6,297,62.6L297,62.6z"/>
		<path class="st0" d="M343.5,70V9.2h10.1v24c1.6-1.7,3.5-3.2,5.6-4.2c2.3-1.1,4.8-1.6,7.4-1.6c4.4-0.1,8.6,2,11.2,5.5
			c1.5,2,2.6,4.3,3.2,6.7c0.8,3,1.2,6,1.1,9.1c0,3-0.4,5.9-1.3,8.7c-0.8,2.5-2,4.9-3.6,7c-1.5,1.9-3.5,3.5-5.7,4.6
			c-2.3,1.1-4.9,1.7-7.5,1.7c-1.2,0-2.4-0.1-3.5-0.4c-2-0.5-3.8-1.5-5.3-2.9c-0.8-0.7-1.5-1.4-2.1-2.2l-0.5,2.8
			c-0.1,0.6-0.4,1.1-0.8,1.5c-0.5,0.3-1,0.5-1.6,0.4L343.5,70z M363.1,35.2c-1.9-0.1-3.7,0.4-5.4,1.3c-1.6,1-3,2.3-4.1,3.7v18.8
			c1,1.3,2.3,2.3,3.7,3c1.4,0.6,2.9,0.9,4.4,0.8c1.4,0,2.8-0.3,4.1-0.9c1.3-0.6,2.3-1.5,3.1-2.6c0.9-1.3,1.6-2.8,2-4.4
			c0.5-2.1,0.7-4.2,0.7-6.3c0-2.1-0.2-4.2-0.6-6.2c-0.3-1.5-0.9-2.9-1.7-4.2c-0.7-1-1.6-1.8-2.7-2.3
			C365.6,35.5,364.3,35.2,363.1,35.2L363.1,35.2z"/>
		<path class="st0" d="M403.5,81.5c-0.2,0.6-0.6,1.2-1.2,1.6c-0.7,0.4-1.4,0.6-2.2,0.6h-7.5l7.9-16.8l-17-38.8h8.9
			c0.7,0,1.3,0.2,1.9,0.6c0.4,0.4,0.8,0.8,1,1.3l9,21.8c0.3,0.7,0.6,1.5,0.8,2.2c0.2,0.8,0.4,1.5,0.6,2.3c0.2-0.8,0.5-1.6,0.7-2.3
			c0.3-0.7,0.5-1.5,0.8-2.2l8.4-21.7c0.2-0.5,0.6-1,1.1-1.3c0.5-0.4,1.1-0.5,1.7-0.5h8L403.5,81.5z"/>
	</g>
</g>
</svg>
