<svg xmlns="http://www.w3.org/2000/svg" width="23" height="21" viewBox="0 0 23 21">
  <path fill="#FFB80C" fill-rule="evenodd" d="M11.796656,17.6497686 C14.1390736,17.9880793 15.8686642,19.3518042 16.3056657,19.7499687 C16.741226,20.1481333 17,23 17,23 L0.000178555356,23 C0.000178555356,23 -0.0313675381,20.6857541 0.744153936,19.7499687 C1.18051487,19.3518042 2.5533304,17.9879274 4.89670873,17.6497686 C7.22343329,17.3278645 6.51260533,14.8756814 6.59315195,14.9071274 C6.6743391,14.9520937 6.57729884,14.3848498 6.57729884,14.3848498 C6.57729884,14.3848498 4.88085562,12.8370061 4.89670873,11.4415313 C4.92905549,10.0314728 4.89670873,9.310037 4.89670873,9.310037 C4.89670873,9.310037 5.17133589,6 7.56275396,6 L8.90402339,6.61388129 C11.0533212,6.61388129 11.4083348,9.310037 11.4083348,9.310037 L11.4083348,11.6408414 C11.4083348,11.6408414 11.1337077,13.6184476 9.79243825,14.3383643 C9.79243825,14.3383643 9.69555811,14.9072793 9.77658513,14.8594267 C9.85713176,14.8293478 9.46961122,17.3278645 11.796656,17.6497686 Z M17.7737557,10.6386076 C17.3778649,10.6386076 16.8181807,10.5240876 16.4502877,10.4668276 C14.9348933,12.4542034 12.2598244,11.9402806 12.2598244,11.9402806 C13.9386066,11.1105775 14.2377902,9.63712439 13.9386066,9.45131283 C12.6144624,8.63549946 12,7.72075666 12,6.33390227 C12,3.88830466 14.5390026,2 17.7737557,2 C21.021899,2 23,3.88830466 23,6.33390227 C22.9998647,8.79367314 21.0217637,10.6386076 17.7737557,10.6386076 Z M15,5 L15,6 L21,6 L21,5 L15,5 Z M15,7 L15,8 L18,8 L18,7 L15,7 Z" transform="translate(0 -2)"/>
</svg>
