<?xml version="1.0" encoding="UTF-8"?>
<svg width="25px" height="25px" viewBox="0 0 25 25" version="1.1" xmlns="http://www.w3.org/2000/svg" xmlns:xlink="http://www.w3.org/1999/xlink">
    <!-- Generator: Sketch 43.2 (39069) - http://www.bohemiancoding.com/sketch -->
    <title>icon-depth</title>
    <desc>Created with Sketch.</desc>
    <defs>
        <circle id="path-1" cx="12.5" cy="12.5" r="12.5"></circle>
    </defs>
    <g id="main" stroke="none" stroke-width="1" fill="none" fill-rule="evenodd">
        <g id="markets" transform="translate(-7.000000, -230.000000)">
            <g id="market-depth" transform="translate(7.000000, 230.000000)">
                <g id="Oval-7">
                    <use fill="#FFFFFF" fill-rule="evenodd" xlink:href="#path-1"></use>
                    <circle stroke="#7E97A7" stroke-width="1" cx="12.5" cy="12.5" r="12"></circle>
                </g>
                <path d="M10,12 L8,12 L8,17 L10,17 L10,12 Z M13,8 L11,8 L11,17 L13,17 L13,8 Z M20,18 L7,18 L7,6 L6,6 L6,19 L20,19 L20,18 Z M16,10 L14,10 L14,17 L16,17 L16,10 Z M19,7 L17,7 L17,17 L19,17 L19,7 Z" id="Bar-Chart---FontAwesome" fill="#7E97A7"></path>
            </g>
        </g>
    </g>
</svg>