<?xml version="1.0" encoding="UTF-8"?>
<svg width="20px" height="20px" viewBox="0 0 20 20" version="1.1" xmlns="http://www.w3.org/2000/svg" xmlns:xlink="http://www.w3.org/1999/xlink">
    <!-- Generator: Sketch 43.2 (39069) - http://www.bohemiancoding.com/sketch -->
    <title>icon-checked</title>
    <desc>Created with Sketch.</desc>
    <defs>
        <path d="M14.5994091,5.18057803 C14.8073973,5.33707961 14.9353882,5.54444109 14.9833854,5.8026687 C15.0313827,6.0608963 14.9753867,6.29955763 14.8153958,6.51865984 L9.84770158,13.6081459 C9.68771063,13.8115979 9.48372523,13.9367973 9.23573926,13.9837478 C8.98775328,14.0306983 8.7597696,13.9759235 8.55178136,13.819422 C8.4237886,13.725521 8.08781264,13.3929602 7.54384341,12.8217294 C6.99987417,12.2504986 6.48791081,11.6988388 6.00793795,11.1667335 L5.26398375,10.3685794 C5.0879937,10.1807775 5,9.95385364 5,9.68780096 C5,9.42174827 5.09599313,9.19482439 5.28798227,9.00702249 C5.47997141,8.8192206 5.70395539,8.72923354 5.95994091,8.73705862 C6.21592643,8.7448837 6.43191097,8.85052068 6.60790102,9.05397273 L8.98375477,11.5658105 L13.3034889,5.39185411 C13.4634798,5.18840206 13.6674652,5.06320267 13.9154512,5.0162522 C14.1634372,4.96930172 14.3914208,5.02407646 14.5994091,5.18057803 Z" id="path-1"></path>
        <filter x="-20.0%" y="-11.1%" width="140.0%" height="144.4%" filterUnits="objectBoundingBox" id="filter-2">
            <feOffset dx="0" dy="1" in="SourceAlpha" result="shadowOffsetOuter1"></feOffset>
            <feGaussianBlur stdDeviation="0.5" in="shadowOffsetOuter1" result="shadowBlurOuter1"></feGaussianBlur>
            <feColorMatrix values="0 0 0 0 0   0 0 0 0 0   0 0 0 0 0  0 0 0 0.5 0" type="matrix" in="shadowBlurOuter1"></feColorMatrix>
        </filter>
    </defs>
    <g id="Symbols" stroke="none" stroke-width="1" fill="none" fill-rule="evenodd">
        <g id="checked">
            <g id="Group-2">
                <g id="ion-checkmark-round---Ionicons">
                    <use fill="black" fill-opacity="1" filter="url(#filter-2)" xlink:href="#path-1"></use>
                    <use fill="#FFFFFF" fill-rule="evenodd" xlink:href="#path-1"></use>
                </g>
            </g>
        </g>
    </g>
</svg>