<?xml version="1.0" encoding="UTF-8"?>
<svg width="18px" height="18px" viewBox="0 0 18 18" version="1.1" xmlns="http://www.w3.org/2000/svg" xmlns:xlink="http://www.w3.org/1999/xlink">
    <!-- Generator: Sketch 43.2 (39069) - http://www.bohemiancoding.com/sketch -->
    <title>info-inplay</title>
    <desc>Created with Sketch.</desc>
    <defs></defs>
    <g id="main" stroke="none" stroke-width="1" fill="none" fill-rule="evenodd">
        <g id="markets" transform="translate(-235.000000, -80.000000)">
            <g id="path" transform="translate(0.000000, 75.000000)">
                <g id="Group-4" transform="translate(235.000000, 5.000000)">
                    <g id="info_icon">
                        <g id="icon-inplay">
                            <rect id="Rectangle-13" fill="#5EA80E" x="0" y="0" width="18" height="18"></rect>
                            <path d="M9,13.8251748 C10.1643251,13.8251748 11.1549255,13.4149225 11.971831,12.5944056 C12.7887365,11.7738887 13.1971831,10.7855536 13.1971831,9.62937063 C13.1971831,8.47318769 12.7887365,7.48951455 11.971831,6.67832168 C11.1549255,5.86712881 10.1643251,5.46153846 9,5.46153846 C7.83567493,5.46153846 6.84507451,5.86712881 6.02816901,6.67832168 C5.21126352,7.48951455 4.8028169,8.47318769 4.8028169,9.62937063 C4.8028169,10.7855536 5.21126352,11.7738887 6.02816901,12.5944056 C6.84507451,13.4149225 7.83567493,13.8251748 9,13.8251748 L9,13.8251748 Z M9,4.25874126 C10.5023549,4.25874126 11.7793375,4.78554252 12.8309859,5.83916084 C13.8826344,6.89277916 14.4084507,8.15616979 14.4084507,9.62937063 C14.4084507,11.1025715 13.8826344,12.3659621 12.8309859,13.4195804 C11.7793375,14.4731987 10.5023549,15 9,15 C7.49764507,15 6.22066254,14.4731987 5.16901408,13.4195804 C4.11736563,12.3659621 3.5915493,11.1025715 3.5915493,9.62937063 C3.5915493,8.15616979 4.11736563,6.89277916 5.16901408,5.83916084 C6.22066254,4.78554252 7.49764507,4.25874126 9,4.25874126 L9,4.25874126 Z M9.30985915,6.66433566 L9.30985915,9.7972028 L11.7042254,11.1958042 L11.2535211,11.9230769 L8.4084507,10.2447552 L8.4084507,6.66433566 L9.30985915,6.66433566 Z M6.52112676,3.8951049 L3.76056338,6.18881119 L3,5.29370629 L5.76056338,3 L6.52112676,3.8951049 Z M15,5.29370629 L14.2394366,6.21678322 L11.4788732,3.8951049 L12.2394366,3 L15,5.29370629 Z" id="Alarm---MaterialIcons-Regular" fill="#FFFFFF"></path>
                        </g>
                    </g>
                </g>
            </g>
        </g>
    </g>
</svg>