<svg xmlns="http://www.w3.org/2000/svg" width="21" height="19"><defs><linearGradient id="a" x1="50%" x2="50%" y1="0%" y2="100%"><stop offset="0%" stop-color="#FFF"/><stop offset="100%" stop-color="#E0E0E0"/></linearGradient><linearGradient id="b" x1="50%" x2="50%" y1="0%" y2="72.529%"><stop offset="0%" stop-color="#38AEFA"/><stop offset="100%" stop-color="#0B7DC5"/></linearGradient></defs><g fill="none" fill-rule="evenodd"><path fill="url(#a)" d="M4 0h13a4 4 0 0 1 4 4v9a4 4 0 0 1-4 4H4a4 4 0 0 1-4-4V4a4 4 0 0 1 4-4zm3 17h7v2H7v-2zM4 2a2 2 0 0 0-2 2v8a2 2 0 0 0 2 2h13a2 2 0 0 0 2-2V4a2 2 0 0 0-2-2H4zm11 6.024L8 12V4l7 4.024z"/><path fill="url(#b)" d="M4 2h13a2 2 0 0 1 2 2v8a2 2 0 0 1-2 2H4a2 2 0 0 1-2-2V4a2 2 0 0 1 2-2zm11 6.024L8 4v8l7-3.976z"/></g></svg>